<svg width="84" height="20" viewBox="0 0 84 20" fill="none" xmlns="http://www.w3.org/2000/svg">
<path d="M12.6232 6.5416C12.3214 6.04449 11.9042 5.66278 11.3716 5.39646C10.8567 5.13015 10.2442 4.997 9.53402 4.997C8.22022 4.997 7.1816 5.4231 6.41818 6.27529C5.67251 7.12749 5.29967 8.27263 5.29967 9.71071C5.29967 11.3263 5.69914 12.5602 6.49807 13.4124C7.31476 14.2469 8.49541 14.6641 10.04 14.6641C11.8687 14.6641 13.1736 13.8385 13.9548 12.1874H8.70846V8.43242H18.4555V13.4923C18.0471 14.4866 17.4435 15.4187 16.6445 16.2886C15.8634 17.1586 14.8691 17.8776 13.6619 18.4457C12.4546 18.9961 11.0786 19.2713 9.53402 19.2713C7.65209 19.2713 5.9832 18.8718 4.52737 18.0729C3.08928 17.2562 1.97077 16.1288 1.17184 14.6907C0.390659 13.2349 6.86646e-05 11.5749 6.86646e-05 9.71071C6.86646e-05 7.86428 0.390659 6.22203 1.17184 4.78395C1.97077 3.32811 3.08928 2.20073 4.52737 1.40179C5.96545 0.585102 7.62546 0.176758 9.50739 0.176758C11.8687 0.176758 13.8216 0.744889 15.3662 1.88115C16.9109 3.01741 17.8696 4.5709 18.2424 6.5416H12.6232Z" fill="black"/>
<path d="M20.0779 19.7071V5.69907H25.1378V19.7071H20.0779ZM20.0779 4.5273V0.266311H25.1378V4.5273H20.0779Z" fill="black"/>
<path d="M28.6833 19.7071V11.1318H26.9523V7.32357H28.6833V5.80559C28.6833 4.63382 28.8963 3.61296 29.3224 2.74301C29.7485 1.87306 30.3433 1.1984 31.1067 0.71904C31.8879 0.23968 32.7934 0 33.8231 0C34.4268 0 35.0481 0.071016 35.6873 0.213048C36.3264 0.337327 37.0011 0.532623 37.7113 0.798934L36.8591 4.63382C36.575 4.5273 36.2554 4.43853 35.9003 4.36751C35.5453 4.29649 35.2346 4.26098 34.9683 4.26098C34.5599 4.26098 34.2492 4.37639 34.0362 4.60719C33.8409 4.82024 33.7432 5.15757 33.7432 5.61917V7.32357H36.8058V11.1318H33.7432V19.7071H28.6833Z" fill="black"/>
<path d="M48.2397 18.9348C47.7781 19.13 47.281 19.3165 46.7484 19.494C46.2335 19.6538 45.7009 19.7781 45.1505 19.8668C44.6179 19.9556 44.0941 20 43.5793 20C42.8158 20 42.1146 19.8757 41.4754 19.6272C40.8363 19.3609 40.3214 18.9348 39.9308 18.3489C39.558 17.7452 39.3715 16.9374 39.3715 15.9254V9.50732H37.6405V5.69907H39.3715V1.30493H44.4315V5.69907H47.1745V9.50732H44.4315V14.1411C44.4315 14.6028 44.5291 14.9312 44.7244 15.1265C44.9197 15.304 45.186 15.3928 45.5233 15.3928C45.7719 15.3928 46.056 15.3484 46.3755 15.2597C46.6951 15.1709 47.0147 15.0644 47.3343 14.9401L48.2397 18.9348Z" fill="black"/>
<path d="M49.6739 19.7071V5.69907H54.7338V19.7071H49.6739ZM49.6739 4.5273V0.266311H54.7338V4.5273H49.6739Z" fill="black"/>
<path d="M58.2793 11.1318H56.5482V7.32357H58.2793V5.80559C58.2793 4.91789 58.4302 4.11895 58.732 3.40879C59.0516 2.69862 59.4954 2.09498 60.0635 1.59787C60.6317 1.083 61.3063 0.692409 62.0875 0.426098C62.8687 0.142033 63.7209 0 64.6441 0C65.3365 0 66.0023 0.0798935 66.6414 0.239681C67.2983 0.381713 67.9641 0.612516 68.6388 0.93209C69.3134 1.25166 70.0236 1.65113 70.7693 2.13049L68.8518 5.96538C68.2482 5.43276 67.609 5.01553 66.9344 4.71371C66.2597 4.41189 65.6117 4.26098 64.9903 4.26098C64.653 4.26098 64.36 4.31425 64.1115 4.42077C63.8629 4.50954 63.6676 4.66045 63.5256 4.8735C63.4013 5.0688 63.3392 5.31735 63.3392 5.61917V7.32357H71.3019V19.7071H66.242V11.1318H63.3392V19.7071H58.2793V11.1318Z" fill="black"/>
<path d="M83.6612 18.9348C83.1996 19.13 82.7025 19.3165 82.1699 19.494C81.655 19.6538 81.1224 19.7781 80.572 19.8668C80.0394 19.9556 79.5157 20 79.0008 20C78.2374 20 77.5361 19.8757 76.8969 19.6272C76.2578 19.3609 75.7429 18.9348 75.3523 18.3489C74.9795 17.7452 74.7931 16.9374 74.7931 15.9254V9.50732H73.062V5.69907H74.7931V1.30493H79.853V5.69907H82.596V9.50732H79.853V14.1411C79.853 14.6028 79.9506 14.9312 80.1459 15.1265C80.3412 15.304 80.6075 15.3928 80.9449 15.3928C81.1934 15.3928 81.4775 15.3484 81.7971 15.2597C82.1166 15.1709 82.4362 15.0644 82.7558 14.9401L83.6612 18.9348Z" fill="black"/>
</svg>
